<?xml version="1.0" encoding="UTF-8" standalone="no"?>
<!-- Created with Inkscape (http://www.inkscape.org/) -->

<svg
   xmlns:dc="http://purl.org/dc/elements/1.1/"
   xmlns:cc="http://creativecommons.org/ns#"
   xmlns:rdf="http://www.w3.org/1999/02/22-rdf-syntax-ns#"
   xmlns:svg="http://www.w3.org/2000/svg"
   xmlns="http://www.w3.org/2000/svg"
   xmlns:sodipodi="http://sodipodi.sourceforge.net/DTD/sodipodi-0.dtd"
   xmlns:inkscape="http://www.inkscape.org/namespaces/inkscape"
   width="64px"
   height="64px"
   id="svg3116"
   version="1.1"
   inkscape:version="0.48.3.1 r9886"
   sodipodi:docname="New document 8">
  <defs
     id="defs3118" />
  <sodipodi:namedview
     id="base"
     pagecolor="#ffffff"
     bordercolor="#666666"
     borderopacity="1.0"
     inkscape:pageopacity="0.0"
     inkscape:pageshadow="2"
     inkscape:zoom="2.75"
     inkscape:cx="24.31394"
     inkscape:cy="36.368723"
     inkscape:current-layer="layer1"
     showgrid="true"
     inkscape:document-units="px"
     inkscape:grid-bbox="true"
     inkscape:window-width="1855"
     inkscape:window-height="1056"
     inkscape:window-x="65"
     inkscape:window-y="24"
     inkscape:window-maximized="1" />
  <metadata
     id="metadata3121">
    <rdf:RDF>
      <cc:Work
         rdf:about="">
        <dc:format>image/svg+xml</dc:format>
        <dc:type
           rdf:resource="http://purl.org/dc/dcmitype/StillImage" />
        <dc:title></dc:title>
      </cc:Work>
    </rdf:RDF>
  </metadata>
  <g
     id="layer1"
     inkscape:label="Layer 1"
     inkscape:groupmode="layer">
    <path
       style="fill:#000000"
       d="M 3.7069713,61.224819 C 2.6813388,60.8846 2.6233851,59.571222 3.6137058,59.11115 3.8626572,58.995491 4.7515089,58.991695 31.794219,58.990667 c 18.611603,-7.04e-4 28.001399,0.02064 28.157205,0.06407 0.324379,0.09042 0.735266,0.549646 0.791708,0.884859 0.02407,0.142987 0.01352,0.372811 -0.0235,0.510715 -0.08581,0.319731 -0.473766,0.698236 -0.809154,0.789427 -0.38318,0.104184 -55.8888529,0.08943 -56.2034921,-0.01493 z M 3.912584,53.507844 c -0.5323863,-0.126266 -0.9356595,-0.842115 -0.7868306,-1.39671 0.088131,-0.328425 0.4921968,-0.723797 0.8169911,-0.799405 0.2815528,-0.06556 55.7982455,-0.08546 56.1237585,-0.02015 0.31966,0.06414 0.772398,0.517999 0.844887,0.846954 0.129798,0.589002 -0.237028,1.20765 -0.808126,1.362927 -0.305096,0.08295 -55.8412306,0.08924 -56.19068,0.0066 z M 29.339373,45.46736 c -0.646616,-0.596468 -1.986312,-1.838963 -2.977094,-2.761113 -0.99079,-0.922142 -3.391226,-3.154802 -5.334308,-4.961466 -1.943075,-1.806661 -3.92329,-3.651071 -4.400461,-4.098693 -0.47717,-0.447614 -0.939093,-0.862904 -1.026483,-0.922855 -0.314885,-0.216007 -0.731644,-0.120067 -1.512011,0.348079 -0.17673,0.106017 -0.447557,0.250081 -0.60184,0.320128 -0.154281,0.07003 -0.356722,0.180574 -0.449861,0.245613 -0.09314,0.06507 -0.458546,0.272893 -0.812006,0.461905 -0.353461,0.189011 -0.758336,0.410863 -0.899721,0.493011 -0.141383,0.08213 -0.37897,0.206145 -0.527969,0.275552 -0.149006,0.06936 -0.568338,0.297908 -0.9318547,0.507782 -0.3635171,0.209873 -0.892298,0.506355 -1.1750654,0.658848 -0.2827741,0.152492 -0.6731883,0.364795 -0.8675912,0.471783 -0.1944029,0.106989 -0.5414395,0.29344 -0.7711883,0.414337 -0.2297494,0.120896 -0.4466458,0.243151 -0.4819916,0.271682 -0.035371,0.02851 -0.3100816,0.182181 -0.6105227,0.341462 -0.3004462,0.159274 -0.6908612,0.369272 -0.8675912,0.466662 -0.17673,0.09739 -0.5657869,0.305134 -0.8645674,0.461655 -0.2987813,0.156521 -0.5796492,0.314907 -0.6241452,0.351965 -0.086791,0.07228 -0.6172768,0.362914 -1.3307741,0.729094 -0.2429095,0.12466 -0.4742676,0.252402 -0.5141256,0.283858 -0.039873,0.03142 -0.3544357,0.207263 -0.6990588,0.390689 l -0.62659288,0.333489 0,-0.893795 0,-0.893795 0.27313294,-0.14582 c 0.15022017,-0.08023 0.41772834,-0.229204 0.59445834,-0.331104 0.1767299,-0.101899 0.6972787,-0.385673 1.1567826,-0.630617 0.4594976,-0.244943 0.9366686,-0.507474 1.0603848,-0.583397 0.1237111,-0.07593 0.3914133,-0.221586 0.5948977,-0.323709 0.2034852,-0.102123 0.4059198,-0.213787 0.4498629,-0.24815 0.043928,-0.03439 0.3980016,-0.231293 0.7868075,-0.437619 0.3888115,-0.206328 0.8081433,-0.429919 0.9318537,-0.496873 0.1237112,-0.06697 0.3732439,-0.200649 0.554509,-0.297095 0.1812712,-0.09645 0.3692507,-0.206411 0.4177284,-0.244372 0.079306,-0.06208 0.8996114,-0.510094 1.6626593,-0.908025 0.7668015,-0.3999 1.3702389,-0.734349 1.5284459,-0.847124 0.09603,-0.06847 0.275814,-0.170909 0.399525,-0.227678 0.123711,-0.05678 0.485204,-0.248142 0.803322,-0.425269 0.318115,-0.177126 0.694068,-0.380285 0.835452,-0.451468 0.141383,-0.0712 0.307674,-0.158818 0.36953,-0.194731 0.06185,-0.03589 0.163073,-0.09234 0.224928,-0.125389 0.06186,-0.03307 0.387203,-0.216796 0.72299,-0.408303 0.335787,-0.191514 0.71174,-0.399541 0.835457,-0.462285 0.123709,-0.06274 0.369524,-0.194009 0.546254,-0.291698 l 0.321331,-0.177616 0.385593,0.356482 c 0.212077,0.196066 0.732632,0.693404 1.156784,1.105195 0.424152,0.411792 2.361763,2.226452 4.305804,4.032584 3.642872,3.384452 5.11729,4.756554 7.468665,6.950418 l 1.363422,1.272092 0.301024,0 c 0.295814,0 0.31331,-0.01202 1.011137,-0.693221 1.495781,-1.460201 15.028754,-14.849964 17.205435,-17.023369 l 2.286062,-2.282607 0.872036,0.762015 c 0.479618,0.419111 3.419884,2.99645 6.533926,5.727417 l 5.661889,4.965403 5.13e-4,0.988085 5.14e-4,0.988077 -0.185493,-0.149765 C 63.768089,37.421311 61.536511,35.467727 58.91105,33.16236 50.469497,25.749998 51.419042,26.552578 51.090893,26.552578 l -0.286127,0 -1.71306,1.689073 c -0.94218,0.928988 -5.481698,5.419612 -10.087812,9.979167 -4.60612,4.559545 -8.400435,8.299294 -8.431804,8.310558 -0.03137,0.01127 -0.586096,-0.467548 -1.232717,-1.064016 z M 3.8655657,45.442079 c -0.2907427,-0.08471 -0.6532162,-0.4685 -0.7368572,-0.780192 -0.1330614,-0.495828 0.043015,-0.96128 0.4781462,-1.263854 l 0.2529037,-0.175875 10.9122076,-0.01683 10.912206,-0.01683 1.014589,0.943809 c 0.558023,0.519094 1.115321,1.041762 1.238445,1.161473 l 0.223856,0.217666 -12.04875,-0.0058 C 9.2361941,45.502226 3.9785638,45.475013 3.8655657,45.442119 z m 30.1136883,-1.09441 1.188915,-1.157794 12.49968,0.01616 12.499678,0.01617 0.268365,0.182738 c 0.670517,0.456583 0.670517,1.434937 0,1.891519 l -0.268365,0.182747 -13.688595,0.01318 -13.688595,0.01318 1.188917,-1.157794 z m -6.138212,-3.429294 c -1.448735,-1.34878 -3.761393,-3.500552 -5.139241,-4.781728 -4.078104,-3.79196 -4.466813,-4.156962 -5.203174,-4.885931 -0.386871,-0.382981 -0.689646,-0.71013 -0.672846,-0.72699 0.01683,-0.01691 0.723748,-0.166176 1.570985,-0.331797 0.883136,-0.17265 1.659755,-0.359839 1.820079,-0.438697 0.292084,-0.143673 1.043494,-0.874218 1.468033,-1.42727 0.414209,-0.539592 1.055207,-1.461005 1.128192,-1.621737 0.03787,-0.08338 0.0859,-0.151797 0.106728,-0.151995 0.02083,-2e-4 0.211402,-0.03241 0.423478,-0.07161 0.212076,-0.03912 0.71817,-0.08978 1.124649,-0.112476 0.69462,-0.0388 0.740251,-0.04965 0.758929,-0.18127 0.01615,-0.113752 -0.06826,-0.191573 -0.449858,-0.414768 -1.534703,-0.89764 -2.576623,-1.751178 -3.606369,-2.954317 -2.610287,-3.049812 -3.620019,-6.831585 -2.868979,-10.745229 0.74607,-3.8877502 3.399113,-7.2963396 7.09813,-9.1195624 2.100652,-1.0353967 3.864511,-1.4450828 6.233776,-1.4478844 1.309764,-0.00166 1.741304,0.038044 2.859825,0.2622826 3.466474,0.6949945 6.590767,2.7782705 8.572794,5.7163441 0.407397,0.6039116 0.997463,1.7035362 1.097145,2.0446182 0.02591,0.088671 0.115685,0.3063031 0.199488,0.4836449 0.203625,0.430888 0.58335,1.776624 0.717244,2.541881 0.150763,0.861694 0.145771,3.327138 -0.0086,4.196872 -0.152896,0.861983 -0.617487,2.197426 -1.132931,3.256527 -0.664049,1.364477 -1.320066,2.296043 -2.457891,3.490306 -0.915062,0.960444 -1.579618,1.457491 -3.112463,2.327905 -0.360715,0.204834 -0.670369,0.407854 -0.688122,0.451161 -0.01774,0.04326 0.01192,0.12311 0.06597,0.177334 0.08308,0.08336 0.353981,0.0986 1.753894,0.0986 l 1.655637,0 0.249402,0.370788 c 1.032158,1.534566 1.846894,2.480968 2.408449,2.797657 0.140512,0.07924 0.255472,0.162306 0.255472,0.184602 0,0.03805 -11.349981,11.295091 -12.886111,12.780612 L 30.475053,43.370684 27.840995,40.91836 z M 6.4092621,38.190681 c 0,-0.01865 0.065069,-0.06267 0.1446013,-0.09792 0.07953,-0.03523 0.3470307,-0.177242 0.5944533,-0.31557 0.2474274,-0.138319 0.5510797,-0.303385 0.674791,-0.3668 0.1237103,-0.06341 0.388857,-0.210877 0.589204,-0.327688 0.2003527,-0.116811 0.4005123,-0.212386 0.4448026,-0.212386 0.044268,0 0.1261812,-0.04027 0.1819843,-0.08951 0.055793,-0.04924 0.2555911,-0.172559 0.4439698,-0.274061 0.1883844,-0.101502 0.4486581,-0.24835 0.5783936,-0.326328 0.12973,-0.07799 0.302826,-0.172285 0.384659,-0.209576 0.09841,-0.04484 1.377563,-0.0678 3.77882,-0.0678 l 3.630044,0 1.217839,1.136543 c 0.669805,0.625097 1.217833,1.147433 1.217833,1.160745 0,0.01335 -3.123317,0.02421 -6.9407,0.02421 -3.8173787,0 -6.9406949,-0.01525 -6.9406949,-0.03382 z m 34.9284139,-1.12691 1.155442,-1.160737 8.829749,0 c 6.552653,0 8.894427,0.01939 9.080548,0.07542 0.309693,0.09311 0.661349,0.470805 0.76663,0.823392 0.158411,0.53055 -0.247012,1.209307 -0.806804,1.350752 -0.203438,0.05138 -3.125797,0.07195 -10.232885,0.07195 l -9.948122,0 1.155442,-1.160744 z m -41.22547052,-0.427218 -0.001161,-1.555718 0.14459536,-0.0017 c 0.0795301,-8.29e-4 0.74825613,-0.164917 1.48606023,-0.364545 0.7377992,-0.199632 1.3891555,-0.347772 1.4474518,-0.329206 0.058296,0.01857 0.206548,0.0042 0.3294492,-0.03191 0.1229003,-0.03613 0.5271088,-0.136644 0.8982475,-0.223417 0.7777656,-0.181834 1.9786622,-0.498928 2.5384936,-0.670286 0.2120758,-0.0649 0.5591124,-0.168573 0.7711882,-0.230347 0.2120756,-0.06175 0.7181694,-0.213339 1.1246481,-0.336797 1.0014913,-0.304172 0.9639885,-0.295611 0.9639885,-0.220252 0,0.0368 -0.1518288,0.141545 -0.3373953,0.232727 -0.1855665,0.09118 -0.3807743,0.192071 -0.4337931,0.224213 -0.4945646,0.299805 -1.4085281,0.786451 -1.596856,0.850255 -0.1290964,0.04377 -0.2641477,0.113462 -0.3001212,0.154947 -0.1076583,0.124161 -0.5053573,0.349196 -0.6175852,0.349454 -0.057525,1.31e-4 -0.1432837,0.047 -0.1905747,0.104193 -0.047294,0.05719 -0.246042,0.182258 -0.4416653,0.27795 -0.1956243,0.0957 -0.4780152,0.252046 -0.627534,0.347446 -0.1495188,0.0954 -0.2986038,0.173456 -0.3313031,0.173456 -0.032684,0 -0.2705319,0.130576 -0.5285125,0.29018 -0.2579872,0.159605 -0.5340238,0.290191 -0.6134214,0.290191 -0.079398,0 -0.1674875,0.04053 -0.1957543,0.0901 -0.028298,0.04956 -0.282745,0.213016 -0.565519,0.363236 -0.2827676,0.150222 -0.55978,0.312802 -0.6155821,0.36129 -0.055793,0.04849 -0.1255594,0.08817 -0.1550185,0.08817 -0.029433,0 -0.272996,0.127154 -0.541194,0.282556 -0.2682037,0.155402 -0.5671732,0.301048 -0.6643747,0.323659 -0.0972018,0.02263 -0.17672993,0.06896 -0.17672993,0.103044 0,0.07542 -0.46874462,0.322515 -0.61175468,0.322515 -0.0565301,0 -0.0884965,0.02313 -0.0710731,0.05147 0.0174533,0.02826 0.005141,0.09359 -0.0273778,0.145091 -0.0368549,0.05843 -0.0594155,-0.491336 -0.060029,-1.462066 z"
       id="path3050"
       inkscape:connector-curvature="0" />
  </g>
</svg>
